<svg width="609" height="783" viewBox="0 0 609 783" fill="none" xmlns="http://www.w3.org/2000/svg">
<path d="M367.008 0C373.083 5.65604e-05 378.008 4.92492 378.008 11V63.1055H462.077C467.652 63.1055 472.171 68.1299 472.171 74.3271V120.057C472.171 126.254 476.69 131.278 482.265 131.278H551.801C557.375 131.278 561.894 136.302 561.895 142.499V208.579C561.895 214.776 566.415 219.801 571.989 219.801H598.906C604.481 219.801 609 224.824 609 231.021V320.167C609 326.364 604.481 331.388 598.906 331.388H544.604C540.797 332.437 538.001 335.922 538.001 340.062V393.062C538.001 398.033 533.971 402.062 529.001 402.062H467.001C462.03 402.062 458.001 406.092 458.001 411.062V495.062C458.001 500.033 453.971 504.062 449.001 504.062H367.001C362.03 504.062 358.001 508.092 358.001 513.062V782.499H255.001V513.062C255.001 508.092 250.971 504.063 246.001 504.062H164.001C159.03 504.062 155.001 500.033 155.001 495.062V411.062C155.001 406.092 150.971 402.063 146.001 402.062H84.001C79.0304 402.062 75.001 398.033 75.001 393.062V340.062C75.0009 335.923 72.2046 332.437 68.3984 331.388H10.0938C4.51911 331.388 6.24325e-05 326.364 0 320.167V231.021C5.41778e-07 224.824 4.51908 219.8 10.0938 219.8H32.5244C38.0991 219.8 42.6191 214.776 42.6191 208.579V142.499C42.6193 136.302 47.1383 131.278 52.7129 131.278H122.249C127.824 131.278 132.343 126.254 132.343 120.057V74.3271C132.343 68.1299 136.862 63.1055 142.437 63.1055H226.506V11C226.506 4.92488 231.431 1.16604e-06 237.506 0H367.008Z" fill="white"/>
</svg>
